<svg xmlns="http://www.w3.org/2000/svg" width="400" height="216" viewBox="-96.063 -94.834 400 216"><path fill="#656868" d="M-32.505-5.222c-7.521 0-7.726.469-7.361 2.714h2.506c2.35 0 2.873.316 2.873 2.349v24.647c0 3.499-.992 3.867-6.579 4.18-.167.678-.167 1.515 0 2.035h19.622c14.93 0 21.093-7.208 21.093-17.965 0-11.173-6.535-17.965-21.577-17.965l-10.577.005zm4.543 29.348V-2.141h5.38c10.026 0 15.247 5.845 15.247 15.875 0 11.245-5.691 14.111-14.619 14.111-4.859 0-6.006-.521-6.006-3.705M22.799-4.857c-2.457 0-3.132.838-4.859 4.859L7.603 24.495c-1.411 3.335-1.88 3.647-5.902 4.173-.156.679-.156 1.515 0 2.035h14.937c1.303 0 1.669-.839 1.303-2.35h-4.486c-2.875 0-2.875-.782-1.675-3.865l2.141-5.695h13.474l3.29 7.887c.578 1.357 0 1.827-5.69 1.983-.158.688-.158 1.526 0 2.047h16.918c1.358 0 1.676-.837 1.358-2.345H42.08c-2.662 0-3.24-.467-3.816-1.825L26.198-.976c-.837-1.825-1.191-2.701-1.359-3.854l-2.04-.027zM20.5 2.348l5.694 13.582H15.07L20.5 2.348zm28.46-6.523c-2.193 0-2.505.99-2.193 2.345h2.508c2.401 0 2.87.316 2.87 2.197v24.96c0 2.141-1.005 2.663-5.175 3.342-.224.681-.224 1.518 0 2.038h15.861c1.564 0 1.712-.838 1.359-2.349h-2.812c-2.197 0-2.718-.367-2.718-2.193V1.356c0-2.192.67-3.183 5.212-3.499.149-.522.149-1.564 0-2.035l-14.912.003zm62.719 0L99.615 20.941 86.506-4.178H75.96c-2.178 0-2.495 1.136-2.178 2.346 5.175.149 5.492.726 5.325 2.401l-2.142 24.537c-.148 2.197-.633 3.239-6.367 3.556a4.66 4.66 0 0 0 0 2.029h17.127c1.471 0 1.675-.838 1.303-2.346h-2.811c-5.529 0-5.529-.523-5.38-2.568l1.676-23.458 14.428 28.503c1.191 0 1.619-.316 2.569-2.197l12.542-26.324 2.346 22.768c.262 2.55-.47 3.128-4.854 3.388l-2.822.147a3.44 3.44 0 0 0 0 2.029h18.431c1.465 0 1.62-.837 1.465-2.346-4.021-.523-4.858-.671-5.016-2.347L119.089.455c-.152-1.508.162-2.346 5.008-2.662.22-.67.22-1.36 0-2.03l-12.418.062zm24.962 0c-2.194 0-2.507.99-2.194 2.345h2.505c2.195 0 2.873.316 2.873 2.197v23.915c0 3.396-1.149 4.074-6.215 4.387-.168.681-.112 1.356 0 2.038h25.466c.671-3.239 1.62-6.267 2.719-9.402.537-1.556-.149-2.195-1.565-2.195l-.166.006-1.473 3.236c-2.198 4.701-2.719 4.963-6.59 4.963h-3.35c-1.473 0-2.366-.47-2.366-2.196V2.037c0-3.394 1.043-3.865 6.523-4.18.148-.521.148-1.564 0-2.035l-16.167.003zm33.838 0c-2.298 0-2.506.99-2.298 2.345h2.495c2.346 0 2.812.316 2.812 2.197v24.127c0 3.496-1.006 3.862-6.535 4.176a3.463 3.463 0 0 0 0 2.036h28.818c.671-3.238 1.676-6.424 2.719-9.401.501-1.508-.168-2.198-1.564-2.198l-.168.006-1.47 3.234c-2.197 4.699-2.719 4.963-6.591 4.963h-4.486c-3.555 0-4.021-.783-4.021-2.663v-9.192h5.479c1.359 0 2.038.47 2.718 4.541.272.123.59.178.899.178.347 0 .682-.056.932-.168-.154-3.388-.154-7 0-10.276.106-1.62-.465-1.974-1.507-1.974h-.627l-.354 2.662c-.164 1.359-.477 1.88-2.04 1.88h-5.484v-13.42h8.36c2.87 0 3.965.838 4.851 4.021l.69 2.346c.129.019.241.019.358.019 1.396 0 1.918-.875 1.676-2.365-.361-2.234-.67-4.691-.828-7.037l-24.834-.037zm37.389-.159c-2.141.156-2.508 1.148-2.141 2.505h2.506c2.141 0 2.874.316 2.874 2.364v24.127c0 3.184-1.044 3.704-5.59 4.021-.155.688-.104 1.47 0 2.048h16.45c1.517 0 1.674-.837 1.517-2.345h-2.66c-2.719 0-3.188-.522-3.188-2.029v-7.671h3.501c3.183 0 3.289.169 4.595 2.515 1.358 2.401 3.238 4.505 4.964 6.013 3.862 3.352 7.048 4.394 11.904 4.394 5.548 0 6.852-1.359 6.386-3.184-4.542 0-6.831-.466-13.72-6.014-1.975-1.618-5.902-5.213-5.902-5.213 4.337-1.824 7.056-5.379 7.056-9.755 0-7.148-5.529-11.895-15.563-11.895-7.297 0-10.444 0-12.939.205m9.772 2.818h1.785c5.902 0 10.072 2.197 10.072 9.241s-4.174 7.888-9.346 7.888h-2.507L217.69-1.43z"/></svg>